<?xml version="1.0" encoding="utf-8"?>
<svg version="1.1" xmlns:xlink="http://www.w3.org/1999/xlink" width="246px" height="229px" xmlns="http://www.w3.org/2000/svg">
  <g transform="matrix(1 0 0 1 -35 -271 )">
    <path d="M 35 271  L 281 271  L 281 500  L 35 500  L 35 271  " fill-rule="nonzero" fill="#cccccc" stroke="none" />
    <path d="M 51 287  L 265 287  L 265 484  L 51 484  L 51 287  " fill-rule="nonzero" fill="#ffffff" stroke="none" />
    <path d="M 180.09500000000003 339.70000000000005  C 170.47700000000003 339.70000000000005  162.92000000000002 332.14300000000003  162.92000000000002 322.52500000000003  C 162.92000000000002 312.90700000000004  170.47700000000003 305.35  180.09500000000003 305.35  C 189.71300000000002 305.35  197.27 312.90700000000004  197.27 322.52500000000003  C 197.27 332.14300000000003  189.71300000000002 339.70000000000005  180.09500000000003 339.70000000000005  " fill-rule="nonzero" fill="#cccccc" stroke="none" />
    <path d="M 57 479  L 57 376.7  L 107.75 330.2  L 178.8 375.11219512195123  L 219.4 358.1  L 260 375.11219512195123  L 260 479  L 57 479  " fill-rule="nonzero" fill="#169bd5" stroke="none" />
  </g>
</svg>